<?xml version="1.0" standalone="no"?>
<!DOCTYPE svg PUBLIC "-//W3C//DTD SVG 20010904//EN"
 "http://www.w3.org/TR/2001/REC-SVG-20010904/DTD/svg10.dtd">
<svg version="1.0" xmlns="http://www.w3.org/2000/svg"
 width="1280.000000pt" height="1062.000000pt" viewBox="0 0 1280.000000 1062.000000"
 preserveAspectRatio="xMidYMid meet">
<metadata>
Created by potrace 1.15, written by Peter Selinger 2001-2017
</metadata>
<g transform="translate(0.000000,1062.000000) scale(0.100000,-0.100000)"
fill="#000000" stroke="none">
<path d="M5280 10614 c-14 -2 -59 -9 -100 -15 -180 -25 -443 -110 -619 -199
-325 -163 -519 -358 -575 -576 -21 -80 -21 -307 -1 -431 74 -453 352 -1097
619 -1430 217 -270 664 -561 1069 -697 382 -127 593 -37 708 301 42 122 107
497 89 508 -9 5 -252 37 -255 33 -2 -2 -11 -55 -20 -118 -44 -308 -96 -459
-168 -497 -73 -37 -279 17 -525 137 -309 150 -555 332 -697 515 -317 406 -613
1221 -566 1559 14 100 47 162 128 243 243 240 841 449 1125 393 256 -50 585
-338 809 -706 148 -244 159 -327 98 -737 -30 -203 -36 -450 -15 -557 53 -260
195 -422 486 -551 59 -26 228 -89 376 -139 494 -168 657 -249 808 -396 206
-202 287 -525 326 -1309 36 -720 53 -918 100 -1155 45 -225 109 -389 230 -590
184 -307 432 -553 800 -794 123 -81 381 -238 385 -234 1 2 32 53 68 113 50 83
63 113 54 121 -7 6 -70 46 -142 89 -544 327 -808 583 -1001 967 -139 277 -173
484 -214 1293 -29 584 -49 791 -96 1025 -80 398 -223 627 -509 815 -160 106
-305 168 -711 305 -143 49 -302 107 -352 129 -214 92 -306 188 -343 356 -15
70 -13 238 5 378 9 64 23 170 32 235 8 64 15 171 15 237 1 203 -32 309 -159
519 -265 435 -626 756 -948 841 -58 15 -264 28 -314 19z"/>
<path d="M6740 7365 c-176 -36 -277 -90 -405 -219 -138 -139 -221 -285 -280
-490 -35 -120 -50 -203 -100 -538 -91 -603 -147 -826 -275 -1095 -197 -413
-666 -938 -1465 -1639 -159 -139 -544 -470 -619 -531 l-39 -32 74 -86 c41 -48
79 -94 86 -102 16 -20 1 -32 374 288 657 563 1075 963 1372 1314 341 401 501
684 611 1076 59 212 82 335 162 859 39 260 64 380 102 485 60 170 191 339 306
395 34 17 107 40 161 51 55 11 101 21 102 23 2 2 -24 185 -33 229 -7 32 -27
34 -134 12z"/>
<path d="M5610 6909 c-269 -217 -410 -386 -546 -656 -101 -199 -144 -345 -288
-993 -104 -466 -169 -678 -252 -827 -99 -177 -346 -448 -599 -658 -71 -59
-130 -113 -129 -119 2 -19 114 -168 124 -164 37 13 258 206 416 363 412 411
482 559 674 1430 124 559 163 692 256 875 123 242 259 401 507 593 l58 45 -64
83 c-34 45 -67 84 -72 85 -6 2 -44 -24 -85 -57z"/>
<path d="M7041 5544 c-63 -474 -130 -682 -300 -936 -221 -329 -588 -637 -1464
-1226 l-294 -197 62 -93 62 -92 324 218 c1374 925 1690 1303 1814 2175 14 98
25 186 25 196 0 16 -11 19 -72 25 -40 4 -89 10 -109 13 l-37 5 -11 -88z"/>
<path d="M6272 3779 c-67 -46 -100 -74 -96 -82 4 -7 29 -44 54 -82 137 -204
231 -372 277 -494 48 -127 41 -277 -21 -459 l-25 -73 22 -8 c145 -54 209 -73
216 -65 5 5 21 47 35 93 122 388 69 601 -275 1119 -39 59 -74 110 -78 113 -3
4 -52 -24 -109 -62z"/>
<path d="M4555 2953 c-143 -18 -350 -80 -475 -143 -105 -53 -241 -151 -330
-236 l-90 -86 -92 70 -92 71 -28 -24 c-37 -31 -97 -39 -237 -31 -153 8 -227
25 -662 150 -559 160 -792 206 -1037 206 -136 0 -217 -13 -347 -57 -244 -80
-489 -238 -719 -462 -254 -249 -378 -451 -427 -696 -22 -109 -17 -349 8 -461
60 -258 177 -437 374 -569 169 -113 401 -204 646 -252 125 -24 159 -27 363
-27 201 0 241 3 375 28 417 75 905 226 1190 368 310 155 434 303 435 518 0
122 -54 267 -163 434 -63 95 -293 385 -313 393 -12 4 -183 -131 -199 -158 -4
-5 26 -49 67 -97 268 -318 369 -513 329 -635 -35 -105 -290 -244 -691 -377
-400 -133 -778 -210 -1037 -210 -416 0 -866 174 -1007 389 -89 137 -120 251
-121 446 0 154 13 222 65 333 87 187 333 448 573 611 96 64 252 142 357 177
81 27 93 29 265 29 169 -1 190 -3 357 -38 98 -21 352 -87 565 -148 528 -151
583 -162 803 -163 138 0 185 3 225 17 27 9 50 15 51 14 1 -1 -16 -31 -37 -66
-56 -93 -80 -165 -86 -256 -10 -148 49 -318 170 -493 109 -159 329 -360 487
-445 223 -121 751 -268 1405 -392 105 -19 199 -37 211 -40 19 -4 23 5 48 126
15 72 26 132 24 133 -2 1 -146 31 -321 65 -512 100 -942 214 -1158 306 -112
48 -206 114 -320 223 -173 165 -279 353 -279 492 0 89 93 233 242 376 230 221
492 324 823 324 326 0 575 -83 1525 -508 821 -367 1129 -486 1505 -582 459
-117 845 -90 1292 91 149 60 388 178 663 327 583 315 800 384 1125 353 166
-16 296 -44 465 -101 345 -115 669 -296 1208 -672 62 -43 116 -77 120 -74 5 3
40 52 80 109 l72 105 -187 129 c-575 394 -897 566 -1283 685 -214 66 -511 106
-689 94 -282 -20 -526 -113 -1086 -416 -836 -452 -1174 -518 -1793 -348 -331
90 -599 197 -1482 590 -918 409 -1175 490 -1545 486 -82 0 -163 -3 -180 -5z"/>
<path d="M1260 2430 c-130 -48 -330 -222 -505 -440 -150 -187 -356 -470 -350
-479 3 -6 37 -32 75 -60 l69 -51 43 58 c334 455 479 624 624 728 91 65 124 76
218 72 l81 -3 18 89 c10 49 15 92 11 95 -3 3 -56 7 -117 9 -92 2 -122 -1 -167
-18z"/>
<path d="M5351 1803 c-28 -64 -48 -120 -44 -124 5 -4 76 -36 158 -72 1098
-476 1696 -791 1836 -968 38 -48 37 -48 -63 -79 -376 -114 -1493 -219 -2933
-275 -225 -9 -425 -18 -444 -21 -46 -7 -97 -60 -106 -107 -8 -39 9 -97 28 -97
6 0 52 32 104 70 51 39 93 68 93 64 0 -4 -20 -45 -45 -92 -25 -47 -45 -89 -45
-95 0 -11 118 -7 770 23 1529 72 2462 177 2755 310 158 71 221 205 165 352
-83 222 -484 475 -1430 906 -349 158 -723 322 -737 322 -5 0 -33 -53 -62 -117z"/>
<path d="M583 1358 c-21 -28 -83 -136 -83 -146 0 -6 48 -39 107 -74 140 -83
213 -154 237 -230 l17 -56 86 23 c47 13 88 26 91 29 9 9 -17 86 -51 149 -48
92 -119 150 -358 295 -29 17 -39 19 -46 10z"/>
</g>
</svg>
